<?xml version="1.0" encoding="UTF-8"?>
<svg width="50px" height="50px" version="1.1" viewBox="0 0 752 752" xmlns="http://www.w3.org/2000/svg">
 <path d="m446.57 285.07v49.254c0 2.8398-3.3164 4.7344-5.6836 2.8398l-99.926-71.039c-2.3672-1.8945-5.6836 0-5.6836 2.8398v42.621c0 2.8398-3.3164 4.7344-5.6836 2.8398l-68.195-48.301c-2.3672-1.8945-5.6836 0-5.6836 2.8398v213.58c0 2.8398 3.3164 4.7344 5.6836 2.8398l68.195-48.777c2.3672-1.8945 5.6836 0 5.6836 2.8398v42.621c0 2.8398 3.3164 4.7344 5.6836 2.8398l99.926-71.039c2.3672-1.8945 5.6836 0 5.6836 2.8398v49.727c0 1.8945 1.4219 3.7891 3.7891 3.7891h42.148c1.8945 0 3.7891-1.4219 3.7891-3.7891l-0.003907-181.37c0-1.8945-1.4219-3.7891-3.7891-3.7891h-42.148c-1.8906 0.47266-3.7852 1.8945-3.7852 3.7891z"/>
</svg>
