<?xml version="1.0" encoding="UTF-8"?>
<svg width="50px" height="50px" version="1.1" viewBox="0 0 752 752" xmlns="http://www.w3.org/2000/svg">
 <g>
  <path d="m218.77 517.6v-283.2c0-8.5234 7.1055-15.629 15.629-15.629h72.93c8.5234 0 15.629 7.1055 15.629 15.629v283.2c0 8.5234-7.1055 15.629-15.629 15.629l-72.93-0.003906c-8.5273 0-15.629-7.1055-15.629-15.629z"/>
  <path d="m429.04 517.6v-283.2c0-8.5234 7.1055-15.629 15.629-15.629h72.93c8.5234 0 15.629 7.1055 15.629 15.629v283.2c0 8.5234-7.1055 15.629-15.629 15.629l-72.93-0.003906c-8.5273 0-15.629-7.1055-15.629-15.629z"/>
 </g>
</svg>
