<?xml version="1.0" encoding="UTF-8"?>
<svg width="50px" height="50px" version="1.1" viewBox="0 0 752 752" xmlns="http://www.w3.org/2000/svg">
 <path d="m421.94 314.91c-2.3672 1.8945-5.6836 0-5.6836-2.8398v-42.621c0-2.8398-3.3164-4.7344-5.6836-2.8398l-99.453 70.562c-2.3672 1.8945-5.6836 0-5.6836-2.8398l0.003906-49.73c0-1.8945-1.4219-3.7891-3.7891-3.7891h-42.148c-1.8945 0-3.7891 1.4219-3.7891 3.7891v182.8c0 1.8945 1.4219 3.7891 3.7891 3.7891h42.148c1.8945 0 3.7891-1.4219 3.7891-3.7891v-49.254c0-2.8398 3.3164-4.7344 5.6836-2.8398l99.453 70.562c2.3672 1.8945 5.6836 0 5.6836-2.8398v-42.621c0-2.8398 3.3164-4.7344 5.6836-2.8398l68.195 48.305c2.3672 1.8945 5.6836 0 5.6836-2.8398v-42.148l-0.003906-128.82v-42.621c0-2.8398-3.3164-4.7344-5.6836-2.8398z"/>
</svg>
